<?xml version="1.0" ?><svg enable-background="new 0 0 64 64" id="Layer_1" version="1.1" viewBox="0 0 64 64" xml:space="preserve" xmlns="http://www.w3.org/2000/svg" xmlns:xlink="http://www.w3.org/1999/xlink"><g id="Flat_1_1_"><g><g><g><circle cx="32" cy="32" fill="#E9EDF1" r="32"/></g></g><g><g><g><g><g><path d="M57.495,49.837V15.343c0-0.825-0.675-1.5-1.5-1.5H8.014c-0.825,0-1.5,0.675-1.5,1.5v34.494         C6.515,49.837,57.621,49.837,57.495,49.837z" fill="#333333"/></g></g><g><g><rect fill="#333333" height="32.244" width="47.232" x="8.389" y="15.718"/></g></g><g><g><rect fill="#D8D8D8" height="0.938" width="59.99" x="2" y="49.837"/></g></g><g><g><polygon fill="#AAAAAA" points="59.001,52.649 5.01,52.649 2.01,50.775 62,50.775        "/></g></g><g opacity="0.7"><g><path d="M37.038,49.837H26.952c0.096,0.526,0.565,0.938,1.152,0.938h7.781         C36.473,50.775,36.943,50.363,37.038,49.837z" fill="#FFFFFF"/></g></g></g></g></g></g><g><g><g><g><circle cx="20.986" cy="18" fill="#DB2B42" r="1.002"/></g></g><g><g><circle cx="16.986" cy="18" fill="#DB2B42" r="1.002"/></g></g><g><g><circle cx="12.986" cy="18" fill="#DB2B42" r="1.002"/></g></g><g><g><rect fill="#E9EDF1" height="1" width="28" x="23.984" y="17.5"/></g></g></g></g></g><g id="Flat_1"><g><g><g><rect fill="#E9EDF1" height="3.167" width="13.927" x="36.047" y="24.5"/></g></g><g><g><rect fill="#E9EDF1" height="3.167" width="13.927" x="36.047" y="29.778"/></g></g><g><g><rect fill="#E9EDF1" height="3.167" width="13.927" x="36.047" y="35.056"/></g></g><g><g><rect fill="#E9EDF1" height="3.167" width="13.927" x="36.047" y="40.333"/></g></g><g><g><rect fill="#E9EDF1" height="1" width="18.462" x="13.974" y="42.5"/></g></g><g><g><g><path d="M31.342,39.833H15.068c-0.602,0-1.094-0.492-1.094-1.094V25.594c0-0.602,0.492-1.094,1.094-1.094       h16.274c0.602,0,1.094,0.492,1.094,1.094V38.74C32.436,39.341,31.943,39.833,31.342,39.833z" fill="#DB2B42"/></g></g><g><g><polygon fill="#FFFFFF" points="20.968,28.228 27.678,32.102 20.968,35.976      "/></g></g></g></g></g></svg>